{"asset":{"version":"2.0","generator":"VECTARY"},"nodes":[{"translation":[0,-7.105427357601002e-18,0.10758067767101628],"scale":[0.001,0.0010000000000000002,0.0010000000000000002],"rotation":[0,0,0,1],"name":"Windows","mesh":0}],"materials":[{"pbrMetallicRoughness":{"baseColorFactor":[1,1,1,1],"baseColorTexture":{"index":0,"extensions":{"KHR_texture_transform":{"offset":[0,0],"scale":[1,1],"rotation":0}},"texCoord":0},"metallicFactor":0,"roughnessFactor":0.2},"name":"Dallas","emissiveTexture":{"index":1,"extensions":{"KHR_texture_transform":{"offset":[0,0],"scale":[1,1],"rotation":0}},"texCoord":0},"emissiveFactor":[0,0,0],"extensions":{},"alphaMode":"BLEND","doubleSided":false}],"textures":[{"sampler":0,"source":0},{"sampler":0,"source":1}],"images":[{"uri":"Freya_Windows_2x-removebg-preview&Freya_Windows_2x-removebg-preview.png","mimeType":"image/png"},{"uri":"Freya_Windows_2x-removebg-preview.png","mimeType":"image/png"}],"samplers":[{"wrapS":10497,"wrapT":10497}],"meshes":[{"primitives":[{"mode":4,"attributes":{"POSITION":1,"NORMAL":2,"TEXCOORD_0":3},"material":0,"indices":0}]}],"accessors":[{"bufferView":0,"byteOffset":0,"componentType":5125,"count":6,"type":"SCALAR"},{"bufferView":1,"byteOffset":0,"componentType":5126,"count":4,"max":[128,128,0],"min":[-128,-128,0],"type":"VEC3"},{"bufferView":2,"byteOffset":0,"componentType":5126,"count":4,"type":"VEC3"},{"bufferView":3,"byteOffset":0,"componentType":5126,"count":4,"type":"VEC2"}],"bufferViews":[{"buffer":0,"byteOffset":0,"byteLength":24,"target":34963},{"buffer":0,"byteOffset":24,"byteLength":48,"target":34962},{"buffer":0,"byteOffset":72,"byteLength":48,"target":34962},{"buffer":0,"byteOffset":120,"byteLength":32,"target":34962}],"scene":0,"scenes":[{"nodes":[0],"name":"FreyaSegmented"}],"extensionsUsed":["KHR_texture_transform"],"buffers":[{"byteLength":152,"uri":"FreyaSegmented.bin"}]}