{"asset":{"version":"2.0","generator":"VECTARY"},"nodes":[{"translation":[-0.5540202985289638,0.23932135063746332,0.19973515727749916],"scale":[0.001,0.001,0.001],"rotation":[-0.7071067811865475,0,0,0.7071067811865476],"name":"1","mesh":0},{"translation":[-0.6121302341006417,0.2022952803492235,0.1286643167217911],"scale":[0.001,0.001,0.001],"rotation":[-0.7071067811865475,0,0,0.7071067811865476],"name":"1","mesh":1},{"translation":[-0.47130379283140633,0.16767612920119357,0.1254191103471848],"scale":[0.0008730977030653905,0.0008730977030653905,0.0025504410744182034],"rotation":[-0.7071067811865475,0,0,0.7071067811865476],"name":"12x","mesh":2},{"translation":[-0.45198557909312104,0.21714787486075143,-0.0149091477157029],"scale":[0.001,0.001,0.001],"rotation":[-0.7071067811865475,0,0,0.7071067811865476],"name":"2","mesh":3},{"translation":[-0.4869078415306533,0.1990806436353564,0.022454487837578568],"scale":[0.001,0.001,0.001],"rotation":[-0.7071067811865475,0,0,0.7071067811865476],"name":"2","mesh":4},{"translation":[-0.6790709877389716,0.19969297784220044,0.14524403459922655],"scale":[0.001,0.001,0.001],"rotation":[-0.7071067811865475,0,0,0.7071067811865476],"name":"22x","mesh":5},{"translation":[-0.4265741432619569,0.15870600133748497,-0.09907585071070699],"scale":[0.001,0.001,0.001],"rotation":[-0.7071067811865475,0,0,0.7071067811865476],"name":"3","mesh":6},{"translation":[-0.45431486979708974,0.16610237877767398,-0.1789124100683841],"scale":[0.001,0.001,0.001],"rotation":[-0.7071067811865475,0,0,0.7071067811865476],"name":"3","mesh":7},{"translation":[-0.6487400246223163,0.22121568484116644,-0.06736346351273603],"scale":[0.001,0.001,0.001],"rotation":[-0.7071067811865475,0,0,0.7071067811865476],"name":"32x","mesh":8},{"translation":[-0.7031050034998885,0.18,0.02209387256838838],"scale":[0.001,0.001,0.001],"rotation":[-0.7071067811865475,0,0,0.7071067811865476],"name":"42x","mesh":9},{"translation":[-0.5968526749432455,0.16668192657398911,0.06999930012880444],"scale":[0.001,0.001,0.001],"rotation":[-0.6745980365182302,0,0,0.7381852674808326],"name":"5","mesh":10},{"translation":[-0.5481940439467751,0.1717703936310784,-0.2022933261409957],"scale":[0.001,0.001,0.001],"rotation":[-0.7071067811865475,0,0,0.7071067811865476],"name":"5","mesh":11},{"translation":[-0.7018053639370417,0.19829897298497898,-0.153357468415872],"scale":[0.001,0.001,0.001],"rotation":[-0.7071067811865475,0,0,0.7071067811865476],"name":"6","mesh":12},{"translation":[-0.5589126995638487,0.18,-0.0971103712677659],"scale":[0.001,0.001,0.001],"rotation":[-0.7071067811865475,0,0,0.7071067811865476],"name":"52x","mesh":13},{"translation":[-0.7191321635789812,0.18,-0.051465832114430385],"scale":[0.001,0.001,0.001],"rotation":[-0.7071067811865475,0,0,0.7071067811865476],"name":"62x","mesh":14},{"translation":[-0.5860552403764064,0.07445485150893978,1.4210854715202004e-17],"scale":[0.00514,0.00514,0.0002],"rotation":[-0.7071067811865475,0,0,0.7071067811865476],"name":"Background","mesh":15}],"materials":[{"pbrMetallicRoughness":{"baseColorFactor":[1,1,1,1],"baseColorTexture":{"index":0,"extensions":{"KHR_texture_transform":{"offset":[0,0],"scale":[1,1],"rotation":0}},"texCoord":0},"metallicFactor":0,"roughnessFactor":0.2},"name":"Delicious Mix","emissiveTexture":{"index":1,"extensions":{"KHR_texture_transform":{"offset":[0,0],"scale":[1,1],"rotation":0}},"texCoord":0},"emissiveFactor":[0,0,0],"extensions":{},"alphaMode":"BLEND","doubleSided":false},{"pbrMetallicRoughness":{"baseColorFactor":[1,1,1,1],"baseColorTexture":{"index":2,"extensions":{"KHR_texture_transform":{"offset":[0,0],"scale":[1,1],"rotation":0}},"texCoord":0},"metallicFactor":0,"roughnessFactor":0.2},"name":"Bazaar","emissiveTexture":{"index":3,"extensions":{"KHR_texture_transform":{"offset":[0,0],"scale":[1,1],"rotation":0}},"texCoord":0},"emissiveFactor":[0,0,0],"extensions":{},"alphaMode":"BLEND","doubleSided":false},{"pbrMetallicRoughness":{"baseColorFactor":[1,1,1,1],"baseColorTexture":{"index":4,"extensions":{"KHR_texture_transform":{"offset":[0,0],"scale":[1,1],"rotation":0}},"texCoord":0},"metallicFactor":0,"roughnessFactor":0.2},"name":"Madison","emissiveTexture":{"index":5,"extensions":{"KHR_texture_transform":{"offset":[0,0],"scale":[1,1],"rotation":0}},"texCoord":0},"emissiveFactor":[0,0,0],"extensions":{},"alphaMode":"BLEND","doubleSided":false},{"pbrMetallicRoughness":{"baseColorFactor":[1,1,1,1],"baseColorTexture":{"index":6,"extensions":{"KHR_texture_transform":{"offset":[0,0],"scale":[1,1],"rotation":0}},"texCoord":0},"metallicFactor":0,"roughnessFactor":0.2},"name":"Kimono","emissiveTexture":{"index":7,"extensions":{"KHR_texture_transform":{"offset":[0,0],"scale":[1,1],"rotation":0}},"texCoord":0},"emissiveFactor":[0,0,0],"extensions":{},"alphaMode":"BLEND","doubleSided":false},{"pbrMetallicRoughness":{"baseColorFactor":[1,1,1,1],"baseColorTexture":{"index":8,"extensions":{"KHR_texture_transform":{"offset":[0,0],"scale":[1,1],"rotation":0}},"texCoord":0},"metallicFactor":0,"roughnessFactor":0.2},"name":"Zambia","emissiveTexture":{"index":9,"extensions":{"KHR_texture_transform":{"offset":[0,0],"scale":[1,1],"rotation":0}},"texCoord":0},"emissiveFactor":[0,0,0],"extensions":{},"alphaMode":"BLEND","doubleSided":false},{"pbrMetallicRoughness":{"baseColorFactor":[1,1,1,1],"baseColorTexture":{"index":10,"extensions":{"KHR_texture_transform":{"offset":[0,0],"scale":[1,1],"rotation":0}},"texCoord":0},"metallicFactor":0,"roughnessFactor":0.2},"name":"Nautico","emissiveTexture":{"index":11,"extensions":{"KHR_texture_transform":{"offset":[0,0],"scale":[1,1],"rotation":0}},"texCoord":0},"emissiveFactor":[0,0,0],"extensions":{},"alphaMode":"BLEND","doubleSided":false},{"pbrMetallicRoughness":{"baseColorFactor":[1,1,1,1],"baseColorTexture":{"index":12,"extensions":{"KHR_texture_transform":{"offset":[0,0],"scale":[1,1],"rotation":0}},"texCoord":0},"metallicFactor":0,"roughnessFactor":0.2},"name":"Bastille","emissiveTexture":{"index":13,"extensions":{"KHR_texture_transform":{"offset":[0,0],"scale":[1,1],"rotation":0}},"texCoord":0},"emissiveFactor":[0,0,0],"extensions":{},"alphaMode":"BLEND","doubleSided":false},{"pbrMetallicRoughness":{"baseColorFactor":[1,1,1,1],"baseColorTexture":{"index":14,"extensions":{"KHR_texture_transform":{"offset":[0,0],"scale":[1,1],"rotation":0}},"texCoord":0},"metallicFactor":0,"roughnessFactor":0.2},"name":"Spartacus","emissiveTexture":{"index":15,"extensions":{"KHR_texture_transform":{"offset":[0,0],"scale":[1,1],"rotation":0}},"texCoord":0},"emissiveFactor":[0,0,0],"extensions":{},"alphaMode":"BLEND","doubleSided":false},{"pbrMetallicRoughness":{"baseColorFactor":[1,1,1,1],"baseColorTexture":{"index":16,"extensions":{"KHR_texture_transform":{"offset":[0,0],"scale":[1,1],"rotation":0}},"texCoord":0},"metallicFactor":0,"roughnessFactor":0.2},"name":"Lagoon Glow","emissiveTexture":{"index":17,"extensions":{"KHR_texture_transform":{"offset":[0,0],"scale":[1,1],"rotation":0}},"texCoord":0},"emissiveFactor":[0,0,0],"extensions":{},"alphaMode":"BLEND","doubleSided":false},{"pbrMetallicRoughness":{"baseColorFactor":[1,1,1,1],"baseColorTexture":{"index":18,"extensions":{"KHR_texture_transform":{"offset":[0,0],"scale":[1,1],"rotation":0}},"texCoord":0},"metallicFactor":0,"roughnessFactor":0.2},"name":"Irish Beauty","emissiveTexture":{"index":19,"extensions":{"KHR_texture_transform":{"offset":[0,0],"scale":[1,1],"rotation":0}},"texCoord":0},"emissiveFactor":[0,0,0],"extensions":{},"alphaMode":"BLEND","doubleSided":false},{"pbrMetallicRoughness":{"baseColorFactor":[1,1,1,1],"baseColorTexture":{"index":20,"extensions":{"KHR_texture_transform":{"offset":[0,0],"scale":[1,1],"rotation":0}},"texCoord":0},"metallicFactor":0,"roughnessFactor":0.2},"name":"Soft Royal","emissiveTexture":{"index":21,"extensions":{"KHR_texture_transform":{"offset":[0,0],"scale":[1,1],"rotation":0}},"texCoord":0},"emissiveFactor":[0,0,0],"extensions":{},"alphaMode":"BLEND","doubleSided":false},{"pbrMetallicRoughness":{"baseColorFactor":[1,1,1,1],"baseColorTexture":{"index":22,"extensions":{"KHR_texture_transform":{"offset":[0,0],"scale":[1,1],"rotation":0}},"texCoord":0},"metallicFactor":0,"roughnessFactor":0.2},"name":"Baroque","emissiveTexture":{"index":23,"extensions":{"KHR_texture_transform":{"offset":[0,0],"scale":[1,1],"rotation":0}},"texCoord":0},"emissiveFactor":[0,0,0],"extensions":{},"alphaMode":"BLEND","doubleSided":false},{"pbrMetallicRoughness":{"baseColorFactor":[1,1,1,1],"baseColorTexture":{"index":24,"extensions":{"KHR_texture_transform":{"offset":[0,0],"scale":[1,1],"rotation":0}},"texCoord":0},"metallicFactor":0,"roughnessFactor":0.2},"name":"Nila","emissiveTexture":{"index":25,"extensions":{"KHR_texture_transform":{"offset":[0,0],"scale":[1,1],"rotation":0}},"texCoord":0},"emissiveFactor":[0,0,0],"extensions":{},"alphaMode":"BLEND","doubleSided":false},{"pbrMetallicRoughness":{"baseColorFactor":[1,1,1,1],"baseColorTexture":{"index":26,"extensions":{"KHR_texture_transform":{"offset":[0,0],"scale":[1,1],"rotation":0}},"texCoord":0},"metallicFactor":0,"roughnessFactor":0.2},"name":"Afternoon","emissiveTexture":{"index":27,"extensions":{"KHR_texture_transform":{"offset":[0,0],"scale":[1,1],"rotation":0}},"texCoord":0},"emissiveFactor":[0,0,0],"extensions":{},"alphaMode":"BLEND","doubleSided":false},{"pbrMetallicRoughness":{"baseColorFactor":[1,1,1,1],"baseColorTexture":{"index":28,"extensions":{"KHR_texture_transform":{"offset":[0,0],"scale":[1,1],"rotation":0}},"texCoord":0},"metallicFactor":0,"roughnessFactor":0.2},"name":"Aurora","emissiveTexture":{"index":29,"extensions":{"KHR_texture_transform":{"offset":[0,0],"scale":[1,1],"rotation":0}},"texCoord":0},"emissiveFactor":[0,0,0],"extensions":{},"alphaMode":"BLEND","doubleSided":false},{"pbrMetallicRoughness":{"baseColorFactor":[0.8751375823652049,0.6054842999109071,0.8122414898984895,1],"metallicFactor":0,"roughnessFactor":0.2},"name":"Fresh Air","emissiveFactor":[0,0,0],"extensions":{},"alphaMode":"OPAQUE","doubleSided":false}],"textures":[{"sampler":0,"source":0},{"sampler":0,"source":1},{"sampler":0,"source":2},{"sampler":0,"source":3},{"sampler":0,"source":4},{"sampler":0,"source":5},{"sampler":0,"source":6},{"sampler":0,"source":7},{"sampler":0,"source":8},{"sampler":0,"source":9},{"sampler":0,"source":10},{"sampler":0,"source":11},{"sampler":0,"source":12},{"sampler":0,"source":13},{"sampler":0,"source":14},{"sampler":0,"source":15},{"sampler":0,"source":16},{"sampler":0,"source":17},{"sampler":0,"source":18},{"sampler":0,"source":19},{"sampler":0,"source":20},{"sampler":0,"source":21},{"sampler":0,"source":22},{"sampler":0,"source":23},{"sampler":0,"source":24},{"sampler":0,"source":25},{"sampler":0,"source":26},{"sampler":0,"source":27},{"sampler":0,"source":28},{"sampler":0,"source":29}],"images":[{"uri":"1&1.png","mimeType":"image/png"},{"uri":"1.png","mimeType":"image/png"},{"uri":"1&1_1.png","mimeType":"image/png"},{"uri":"_1.png","mimeType":"image/png"},{"uri":"12x&12x.png","mimeType":"image/png"},{"uri":"12x.png","mimeType":"image/png"},{"uri":"2&2.png","mimeType":"image/png"},{"uri":"2.png","mimeType":"image/png"},{"uri":"2&2_1.png","mimeType":"image/png"},{"uri":"_2.png","mimeType":"image/png"},{"uri":"22x&22x.png","mimeType":"image/png"},{"uri":"22x.png","mimeType":"image/png"},{"uri":"3&3.png","mimeType":"image/png"},{"uri":"_3.png","mimeType":"image/png"},{"uri":"3&3_1.png","mimeType":"image/png"},{"uri":"3.png","mimeType":"image/png"},{"uri":"32x&32x.png","mimeType":"image/png"},{"uri":"32x.png","mimeType":"image/png"},{"uri":"42x&42x.png","mimeType":"image/png"},{"uri":"42x.png","mimeType":"image/png"},{"uri":"5&5_1.png","mimeType":"image/png"},{"uri":"_5.png","mimeType":"image/png"},{"uri":"5&5_2.png","mimeType":"image/png"},{"uri":"_6.png","mimeType":"image/png"},{"uri":"5&5.png","mimeType":"image/png"},{"uri":"5.png","mimeType":"image/png"},{"uri":"52x&52x.png","mimeType":"image/png"},{"uri":"52x.png","mimeType":"image/png"},{"uri":"62x&62x.png","mimeType":"image/png"},{"uri":"62x.png","mimeType":"image/png"}],"samplers":[{"wrapS":10497,"wrapT":10497}],"meshes":[{"primitives":[{"mode":4,"attributes":{"POSITION":1,"NORMAL":2,"TEXCOORD_0":3},"material":0,"indices":0}]},{"primitives":[{"mode":4,"attributes":{"POSITION":5,"NORMAL":6,"TEXCOORD_0":7},"material":1,"indices":4}]},{"primitives":[{"mode":4,"attributes":{"POSITION":9,"NORMAL":10,"TEXCOORD_0":11},"material":2,"indices":8}]},{"primitives":[{"mode":4,"attributes":{"POSITION":13,"NORMAL":14,"TEXCOORD_0":15},"material":3,"indices":12}]},{"primitives":[{"mode":4,"attributes":{"POSITION":17,"NORMAL":18,"TEXCOORD_0":19},"material":4,"indices":16}]},{"primitives":[{"mode":4,"attributes":{"POSITION":21,"NORMAL":22,"TEXCOORD_0":23},"material":5,"indices":20}]},{"primitives":[{"mode":4,"attributes":{"POSITION":25,"NORMAL":26,"TEXCOORD_0":27},"material":6,"indices":24}]},{"primitives":[{"mode":4,"attributes":{"POSITION":29,"NORMAL":30,"TEXCOORD_0":31},"material":7,"indices":28}]},{"primitives":[{"mode":4,"attributes":{"POSITION":33,"NORMAL":34,"TEXCOORD_0":35},"material":8,"indices":32}]},{"primitives":[{"mode":4,"attributes":{"POSITION":37,"NORMAL":38,"TEXCOORD_0":39},"material":9,"indices":36}]},{"primitives":[{"mode":4,"attributes":{"POSITION":41,"NORMAL":42,"TEXCOORD_0":43},"material":10,"indices":40}]},{"primitives":[{"mode":4,"attributes":{"POSITION":45,"NORMAL":46,"TEXCOORD_0":47},"material":11,"indices":44}]},{"primitives":[{"mode":4,"attributes":{"POSITION":49,"NORMAL":50,"TEXCOORD_0":51},"material":12,"indices":48}]},{"primitives":[{"mode":4,"attributes":{"POSITION":53,"NORMAL":54,"TEXCOORD_0":55},"material":13,"indices":52}]},{"primitives":[{"mode":4,"attributes":{"POSITION":57,"NORMAL":58,"TEXCOORD_0":59},"material":14,"indices":56}]},{"primitives":[{"mode":4,"attributes":{"POSITION":61,"NORMAL":62,"TEXCOORD_0":63},"material":15,"indices":60}]}],"accessors":[{"bufferView":0,"byteOffset":0,"componentType":5125,"count":6,"type":"SCALAR"},{"bufferView":1,"byteOffset":0,"componentType":5126,"count":4,"max":[140.35000610351562,28.130495071411133,0],"min":[-140.35000610351562,-28.130495071411133,0],"type":"VEC3"},{"bufferView":2,"byteOffset":0,"componentType":5126,"count":4,"type":"VEC3"},{"bufferView":3,"byteOffset":0,"componentType":5126,"count":4,"type":"VEC2"},{"bufferView":4,"byteOffset":0,"componentType":5125,"count":6,"type":"SCALAR"},{"bufferView":5,"byteOffset":0,"componentType":5126,"count":4,"max":[48.349998474121094,68.30843353271484,0],"min":[-48.349998474121094,-68.30843353271484,0],"type":"VEC3"},{"bufferView":6,"byteOffset":0,"componentType":5126,"count":4,"type":"VEC3"},{"bufferView":7,"byteOffset":0,"componentType":5126,"count":4,"type":"VEC2"},{"bufferView":8,"byteOffset":0,"componentType":5125,"count":6,"type":"SCALAR"},{"bufferView":9,"byteOffset":0,"componentType":5126,"count":4,"max":[108.19999694824219,39.888301849365234,0],"min":[-108.19999694824219,-39.888301849365234,0],"type":"VEC3"},{"bufferView":10,"byteOffset":0,"componentType":5126,"count":4,"type":"VEC3"},{"bufferView":11,"byteOffset":0,"componentType":5126,"count":4,"type":"VEC2"},{"bufferView":12,"byteOffset":0,"componentType":5125,"count":6,"type":"SCALAR"},{"bufferView":13,"byteOffset":0,"componentType":5126,"count":4,"max":[43.150001525878906,31.854188919067383,0],"min":[-43.150001525878906,-31.854188919067383,0],"type":"VEC3"},{"bufferView":14,"byteOffset":0,"componentType":5126,"count":4,"type":"VEC3"},{"bufferView":15,"byteOffset":0,"componentType":5126,"count":4,"type":"VEC2"},{"bufferView":16,"byteOffset":0,"componentType":5125,"count":6,"type":"SCALAR"},{"bufferView":17,"byteOffset":0,"componentType":5126,"count":4,"max":[136.85000610351562,34.6811637878418,0],"min":[-136.85000610351562,-34.6811637878418,0],"type":"VEC3"},{"bufferView":18,"byteOffset":0,"componentType":5126,"count":4,"type":"VEC3"},{"bufferView":19,"byteOffset":0,"componentType":5126,"count":4,"type":"VEC2"},{"bufferView":20,"byteOffset":0,"componentType":5125,"count":6,"type":"SCALAR"},{"bufferView":21,"byteOffset":0,"componentType":5126,"count":4,"max":[25.399999618530273,88.53009796142578,0],"min":[-25.399999618530273,-88.53009796142578,0],"type":"VEC3"},{"bufferView":22,"byteOffset":0,"componentType":5126,"count":4,"type":"VEC3"},{"bufferView":23,"byteOffset":0,"componentType":5126,"count":4,"type":"VEC2"},{"bufferView":24,"byteOffset":0,"componentType":5125,"count":6,"type":"SCALAR"},{"bufferView":25,"byteOffset":0,"componentType":5126,"count":4,"max":[64.75,77,0],"min":[-64.75,-77,0],"type":"VEC3"},{"bufferView":26,"byteOffset":0,"componentType":5126,"count":4,"type":"VEC3"},{"bufferView":27,"byteOffset":0,"componentType":5126,"count":4,"type":"VEC2"},{"bufferView":28,"byteOffset":0,"componentType":5125,"count":6,"type":"SCALAR"},{"bufferView":29,"byteOffset":0,"componentType":5126,"count":4,"max":[55.20000076293945,53.3497200012207,0],"min":[-55.20000076293945,-53.3497200012207,0],"type":"VEC3"},{"bufferView":30,"byteOffset":0,"componentType":5126,"count":4,"type":"VEC3"},{"bufferView":31,"byteOffset":0,"componentType":5126,"count":4,"type":"VEC2"},{"bufferView":32,"byteOffset":0,"componentType":5125,"count":6,"type":"SCALAR"},{"bufferView":33,"byteOffset":0,"componentType":5126,"count":4,"max":[40.400001525878906,83.8358383178711,0],"min":[-40.400001525878906,-83.8358383178711,0],"type":"VEC3"},{"bufferView":34,"byteOffset":0,"componentType":5126,"count":4,"type":"VEC3"},{"bufferView":35,"byteOffset":0,"componentType":5126,"count":4,"type":"VEC2"},{"bufferView":36,"byteOffset":0,"componentType":5125,"count":6,"type":"SCALAR"},{"bufferView":37,"byteOffset":0,"componentType":5126,"count":4,"max":[76,37.87205505371094,0],"min":[-76,-37.87205505371094,0],"type":"VEC3"},{"bufferView":38,"byteOffset":0,"componentType":5126,"count":4,"type":"VEC3"},{"bufferView":39,"byteOffset":0,"componentType":5126,"count":4,"type":"VEC2"},{"bufferView":40,"byteOffset":0,"componentType":5125,"count":6,"type":"SCALAR"},{"bufferView":41,"byteOffset":0,"componentType":5126,"count":4,"max":[192.39999389648438,20.746597290039062,0],"min":[-192.39999389648438,-20.746597290039062,0],"type":"VEC3"},{"bufferView":42,"byteOffset":0,"componentType":5126,"count":4,"type":"VEC3"},{"bufferView":43,"byteOffset":0,"componentType":5126,"count":4,"type":"VEC2"},{"bufferView":44,"byteOffset":0,"componentType":5125,"count":6,"type":"SCALAR"},{"bufferView":45,"byteOffset":0,"componentType":5126,"count":4,"max":[155.10000610351562,38.27788543701172,0],"min":[-155.10000610351562,-38.27788543701172,0],"type":"VEC3"},{"bufferView":46,"byteOffset":0,"componentType":5126,"count":4,"type":"VEC3"},{"bufferView":47,"byteOffset":0,"componentType":5126,"count":4,"type":"VEC2"},{"bufferView":48,"byteOffset":0,"componentType":5125,"count":6,"type":"SCALAR"},{"bufferView":49,"byteOffset":0,"componentType":5126,"count":4,"max":[69.5,53.14706039428711,0],"min":[-69.5,-53.14706039428711,0],"type":"VEC3"},{"bufferView":50,"byteOffset":0,"componentType":5126,"count":4,"type":"VEC3"},{"bufferView":51,"byteOffset":0,"componentType":5126,"count":4,"type":"VEC2"},{"bufferView":52,"byteOffset":0,"componentType":5125,"count":6,"type":"SCALAR"},{"bufferView":53,"byteOffset":0,"componentType":5126,"count":4,"max":[70.75,93.47433471679688,0],"min":[-70.75,-93.47433471679688,0],"type":"VEC3"},{"bufferView":54,"byteOffset":0,"componentType":5126,"count":4,"type":"VEC3"},{"bufferView":55,"byteOffset":0,"componentType":5126,"count":4,"type":"VEC2"},{"bufferView":56,"byteOffset":0,"componentType":5125,"count":6,"type":"SCALAR"},{"bufferView":57,"byteOffset":0,"componentType":5126,"count":4,"max":[77.67692565917969,57.79999923706055,0],"min":[-77.67692565917969,-57.79999923706055,0],"type":"VEC3"},{"bufferView":58,"byteOffset":0,"componentType":5126,"count":4,"type":"VEC3"},{"bufferView":59,"byteOffset":0,"componentType":5126,"count":4,"type":"VEC2"},{"bufferView":60,"byteOffset":0,"componentType":5125,"count":36,"type":"SCALAR"},{"bufferView":61,"byteOffset":0,"componentType":5126,"count":24,"max":[50,50,100],"min":[-50,-50,0],"type":"VEC3"},{"bufferView":62,"byteOffset":0,"componentType":5126,"count":24,"type":"VEC3"},{"bufferView":63,"byteOffset":0,"componentType":5126,"count":24,"type":"VEC2"}],"bufferViews":[{"buffer":0,"byteOffset":0,"byteLength":24,"target":34963},{"buffer":0,"byteOffset":24,"byteLength":48,"target":34962},{"buffer":0,"byteOffset":72,"byteLength":48,"target":34962},{"buffer":0,"byteOffset":120,"byteLength":32,"target":34962},{"buffer":0,"byteOffset":152,"byteLength":24,"target":34963},{"buffer":0,"byteOffset":176,"byteLength":48,"target":34962},{"buffer":0,"byteOffset":224,"byteLength":48,"target":34962},{"buffer":0,"byteOffset":272,"byteLength":32,"target":34962},{"buffer":0,"byteOffset":304,"byteLength":24,"target":34963},{"buffer":0,"byteOffset":328,"byteLength":48,"target":34962},{"buffer":0,"byteOffset":376,"byteLength":48,"target":34962},{"buffer":0,"byteOffset":424,"byteLength":32,"target":34962},{"buffer":0,"byteOffset":456,"byteLength":24,"target":34963},{"buffer":0,"byteOffset":480,"byteLength":48,"target":34962},{"buffer":0,"byteOffset":528,"byteLength":48,"target":34962},{"buffer":0,"byteOffset":576,"byteLength":32,"target":34962},{"buffer":0,"byteOffset":608,"byteLength":24,"target":34963},{"buffer":0,"byteOffset":632,"byteLength":48,"target":34962},{"buffer":0,"byteOffset":680,"byteLength":48,"target":34962},{"buffer":0,"byteOffset":728,"byteLength":32,"target":34962},{"buffer":0,"byteOffset":760,"byteLength":24,"target":34963},{"buffer":0,"byteOffset":784,"byteLength":48,"target":34962},{"buffer":0,"byteOffset":832,"byteLength":48,"target":34962},{"buffer":0,"byteOffset":880,"byteLength":32,"target":34962},{"buffer":0,"byteOffset":912,"byteLength":24,"target":34963},{"buffer":0,"byteOffset":936,"byteLength":48,"target":34962},{"buffer":0,"byteOffset":984,"byteLength":48,"target":34962},{"buffer":0,"byteOffset":1032,"byteLength":32,"target":34962},{"buffer":0,"byteOffset":1064,"byteLength":24,"target":34963},{"buffer":0,"byteOffset":1088,"byteLength":48,"target":34962},{"buffer":0,"byteOffset":1136,"byteLength":48,"target":34962},{"buffer":0,"byteOffset":1184,"byteLength":32,"target":34962},{"buffer":0,"byteOffset":1216,"byteLength":24,"target":34963},{"buffer":0,"byteOffset":1240,"byteLength":48,"target":34962},{"buffer":0,"byteOffset":1288,"byteLength":48,"target":34962},{"buffer":0,"byteOffset":1336,"byteLength":32,"target":34962},{"buffer":0,"byteOffset":1368,"byteLength":24,"target":34963},{"buffer":0,"byteOffset":1392,"byteLength":48,"target":34962},{"buffer":0,"byteOffset":1440,"byteLength":48,"target":34962},{"buffer":0,"byteOffset":1488,"byteLength":32,"target":34962},{"buffer":0,"byteOffset":1520,"byteLength":24,"target":34963},{"buffer":0,"byteOffset":1544,"byteLength":48,"target":34962},{"buffer":0,"byteOffset":1592,"byteLength":48,"target":34962},{"buffer":0,"byteOffset":1640,"byteLength":32,"target":34962},{"buffer":0,"byteOffset":1672,"byteLength":24,"target":34963},{"buffer":0,"byteOffset":1696,"byteLength":48,"target":34962},{"buffer":0,"byteOffset":1744,"byteLength":48,"target":34962},{"buffer":0,"byteOffset":1792,"byteLength":32,"target":34962},{"buffer":0,"byteOffset":1824,"byteLength":24,"target":34963},{"buffer":0,"byteOffset":1848,"byteLength":48,"target":34962},{"buffer":0,"byteOffset":1896,"byteLength":48,"target":34962},{"buffer":0,"byteOffset":1944,"byteLength":32,"target":34962},{"buffer":0,"byteOffset":1976,"byteLength":24,"target":34963},{"buffer":0,"byteOffset":2000,"byteLength":48,"target":34962},{"buffer":0,"byteOffset":2048,"byteLength":48,"target":34962},{"buffer":0,"byteOffset":2096,"byteLength":32,"target":34962},{"buffer":0,"byteOffset":2128,"byteLength":24,"target":34963},{"buffer":0,"byteOffset":2152,"byteLength":48,"target":34962},{"buffer":0,"byteOffset":2200,"byteLength":48,"target":34962},{"buffer":0,"byteOffset":2248,"byteLength":32,"target":34962},{"buffer":0,"byteOffset":2280,"byteLength":144,"target":34963},{"buffer":0,"byteOffset":2424,"byteLength":288,"target":34962},{"buffer":0,"byteOffset":2712,"byteLength":288,"target":34962},{"buffer":0,"byteOffset":3000,"byteLength":192,"target":34962}],"scene":0,"scenes":[{"nodes":[0,1,2,3,4,5,6,7,8,9,10,11,12,13,14,15],"name":"Project Name"}],"extensionsUsed":["KHR_texture_transform"],"buffers":[{"byteLength":3192,"uri":"ProjectName.bin"}]}