{"asset":{"version":"2.0","generator":"VECTARY"},"nodes":[{"translation":[0,1.7763568394002505e-18,-0.01],"scale":[0.001,0.001,0.001],"rotation":[-0.7071067811865475,0,0,0.7071067811865476],"name":"Box 1 - baked","mesh":0},{"translation":[0,0.13,1.4210854715202004e-17],"scale":[0.001,0.0010000000000000002,0.0010000000000000002],"rotation":[0,0,0,1],"name":"FreyaX22x","mesh":1}],"materials":[{"pbrMetallicRoughness":{"baseColorFactor":[0.06772458968542432,0.027755279978126032,0.11657577617857154,1],"metallicFactor":0,"roughnessFactor":0.47},"name":"Montana","emissiveFactor":[0,0,0],"extensions":{},"alphaMode":"OPAQUE","doubleSided":false},{"pbrMetallicRoughness":{"baseColorFactor":[1,1,1,1],"baseColorTexture":{"index":0,"extensions":{"KHR_texture_transform":{"offset":[0,0],"scale":[1,1],"rotation":0}},"texCoord":0},"metallicFactor":0,"roughnessFactor":1},"name":"Island Paradise","emissiveTexture":{"index":1,"extensions":{"KHR_texture_transform":{"offset":[0,0],"scale":[1,1],"rotation":0}},"texCoord":0},"emissiveFactor":[0,0,0],"extensions":{},"alphaMode":"OPAQUE","doubleSided":false}],"meshes":[{"primitives":[{"mode":4,"attributes":{"POSITION":1,"NORMAL":2,"TEXCOORD_0":3},"material":0,"indices":0}]},{"primitives":[{"mode":4,"attributes":{"POSITION":5,"NORMAL":6,"TEXCOORD_0":7},"material":1,"indices":4}]}],"accessors":[{"bufferView":0,"byteOffset":0,"componentType":5125,"count":2700,"type":"SCALAR"},{"bufferView":1,"byteOffset":0,"componentType":5126,"count":556,"max":[127,4,254],"min":[-127,-4,0],"type":"VEC3"},{"bufferView":2,"byteOffset":0,"componentType":5126,"count":556,"type":"VEC3"},{"bufferView":3,"byteOffset":0,"componentType":5126,"count":556,"type":"VEC2"},{"bufferView":4,"byteOffset":0,"componentType":5125,"count":6,"type":"SCALAR"},{"bufferView":5,"byteOffset":0,"componentType":5126,"count":4,"max":[128,128,0],"min":[-128,-128,0],"type":"VEC3"},{"bufferView":6,"byteOffset":0,"componentType":5126,"count":4,"type":"VEC3"},{"bufferView":7,"byteOffset":0,"componentType":5126,"count":4,"type":"VEC2"}],"bufferViews":[{"buffer":0,"byteOffset":0,"byteLength":10800,"target":34963},{"buffer":0,"byteOffset":10800,"byteLength":6672,"target":34962},{"buffer":0,"byteOffset":17472,"byteLength":6672,"target":34962},{"buffer":0,"byteOffset":24144,"byteLength":4448,"target":34962},{"buffer":0,"byteOffset":28592,"byteLength":24,"target":34963},{"buffer":0,"byteOffset":28616,"byteLength":48,"target":34962},{"buffer":0,"byteOffset":28664,"byteLength":48,"target":34962},{"buffer":0,"byteOffset":28712,"byteLength":32,"target":34962}],"textures":[{"sampler":0,"source":0},{"sampler":0,"source":1}],"images":[{"uri":"FreyaX22x_1.jpg","mimeType":"image/jpeg"},{"uri":"FreyaX22x.jpg","mimeType":"image/jpeg"}],"samplers":[{"wrapS":10497,"wrapT":10497}],"scene":0,"scenes":[{"nodes":[0,1],"name":"Freya3d"}],"extensionsUsed":["KHR_texture_transform"],"buffers":[{"byteLength":28744,"uri":"Freya3d.bin"}]}