{"asset":{"version":"2.0","generator":"VECTARY"},"nodes":[{"translation":[0,-0.29186483373418715,-0.006735342316942848],"scale":[0.0022451141056475934,0.0022451141056475934,0.0022451141056475934],"rotation":[-0.7071067811865475,0,0,0.7071067811865476],"name":"Box 1 - baked","mesh":0}],"materials":[{"pbrMetallicRoughness":{"baseColorFactor":[1,1,1,1],"baseColorTexture":{"index":0,"extensions":{"KHR_texture_transform":{"offset":[0,0],"scale":[1,1],"rotation":0}},"texCoord":0},"metallicFactor":0,"roughnessFactor":0.2},"name":"Harvest Time","emissiveFactor":[0,0,0],"extensions":{},"alphaMode":"OPAQUE","doubleSided":true}],"textures":[{"sampler":0,"source":0}],"images":[{"uri":"FreyaX22x.jpg","mimeType":"image/jpeg"}],"samplers":[{"wrapS":10497,"wrapT":10497}],"meshes":[{"primitives":[{"mode":4,"attributes":{"POSITION":1,"NORMAL":2,"TEXCOORD_0":3},"material":0,"indices":0}]}],"accessors":[{"bufferView":0,"byteOffset":0,"componentType":5125,"count":2700,"type":"SCALAR"},{"bufferView":1,"byteOffset":0,"componentType":5126,"count":556,"max":[127,4,254],"min":[-127,-4,0],"type":"VEC3"},{"bufferView":2,"byteOffset":0,"componentType":5126,"count":556,"type":"VEC3"},{"bufferView":3,"byteOffset":0,"componentType":5126,"count":556,"type":"VEC2"}],"bufferViews":[{"buffer":0,"byteOffset":0,"byteLength":10800,"target":34963},{"buffer":0,"byteOffset":10800,"byteLength":6672,"target":34962},{"buffer":0,"byteOffset":17472,"byteLength":6672,"target":34962},{"buffer":0,"byteOffset":24144,"byteLength":4448,"target":34962}],"scene":0,"scenes":[{"nodes":[0],"name":"Freya3d"}],"extensionsUsed":["KHR_texture_transform"],"buffers":[{"byteLength":28592,"uri":"Freya3d.bin"}]}