{"asset":{"version":"2.0","generator":"VECTARY"},"nodes":[{"translation":[-0.4344318595793717,0.24881909973371258,0.07824002308215101],"scale":[0.001,0.001,0.001],"rotation":[-0.7071067811865475,0,0,0.7071067811865476],"name":"3D Text - /","mesh":0},{"translation":[-0.41663400801687167,0.24881909973371258,0.07824002308215101],"scale":[0.001,0.001,0.001],"rotation":[-0.7071067811865475,0,0,0.7071067811865476],"name":"3D Text - /0","mesh":1},{"translation":[-0.3876301017668717,0.24881909973371258,0.07824002308215101],"scale":[0.001,0.001,0.001],"rotation":[-0.7071067811865475,0,0,0.7071067811865476],"name":"3D Text - F","mesh":2},{"translation":[-0.3629108634856217,0.24881909973371258,0.07824002308215101],"scale":[0.001,0.001,0.001],"rotation":[-0.7071067811865475,0,0,0.7071067811865476],"name":"3D Text - r","mesh":3},{"translation":[-0.3470905509856217,0.24881909973371258,0.07824002308215101],"scale":[0.001,0.001,0.001],"rotation":[-0.7071067811865475,0,0,0.7071067811865476],"name":"3D Text - e","mesh":4},{"translation":[-0.3229426017668717,0.24881909973371258,0.07824002308215101],"scale":[0.001,0.001,0.001],"rotation":[-0.7071067811865475,0,0,0.7071067811865476],"name":"3D Text - y","mesh":5},{"translation":[-0.30103586348562167,0.24881909973371258,0.07824002308215101],"scale":[0.001,0.001,0.001],"rotation":[-0.7071067811865475,0,0,0.7071067811865476],"name":"3D Text - a","mesh":6},{"translation":[-0.2654841056731217,0.24881909973371258,0.07824002308215101],"scale":[0.001,0.001,0.001],"rotation":[-0.7071067811865475,0,0,0.7071067811865476],"name":"3D Text - _","mesh":7},{"translation":[-0.23397531661062168,0.24881909973371258,0.07824002308215101],"scale":[0.001,0.001,0.001],"rotation":[-0.7071067811865475,0,0,0.7071067811865476],"name":"3D Text - M","mesh":8},{"translation":[-0.19457834395437168,0.24881909973371258,0.07824002308215101],"scale":[0.001,0.001,0.001],"rotation":[-0.7071067811865475,0,0,0.7071067811865476],"name":"3D Text - e0","mesh":9},{"translation":[-0.1704303947356217,0.24881909973371258,0.07824002308215101],"scale":[0.001,0.001,0.001],"rotation":[-0.7071067811865475,0,0,0.7071067811865476],"name":"3D Text - t","mesh":10},{"translation":[-0.1554670158293717,0.24881909973371258,0.07824002308215101],"scale":[0.001,0.001,0.001],"rotation":[-0.7071067811865475,0,0,0.7071067811865476],"name":"3D Text - a0","mesh":11},{"translation":[-0.1311213127043717,0.24881909973371258,0.07824002308215101],"scale":[0.001,0.001,0.001],"rotation":[-0.7071067811865475,0,0,0.7071067811865476],"name":"3D Text - D","mesh":12},{"translation":[0,-0.29186483373418715,-0.006735342316942848],"scale":[0.0022451141056475934,0.0022451141056475934,0.0022451141056475934],"rotation":[-0.7071067811865475,0,0,0.7071067811865476],"name":"Box 1 - baked","mesh":13},{"translation":[0.23810436468307042,-0.23382271035143584,0.13593225407916665],"scale":[0.00038881577256328227,0.00038881577256328227,0.00038881577256328227],"rotation":[0,0,0,1],"name":"Path","mesh":14}],"materials":[{"pbrMetallicRoughness":{"baseColorFactor":[0.03561436968491877,0.016067700890886875,0.05459227728176034,1],"metallicFactor":0,"roughnessFactor":0.2},"name":"Gentle Glow","emissiveFactor":[0,0,0],"extensions":{},"alphaMode":"OPAQUE","doubleSided":false},{"pbrMetallicRoughness":{"baseColorFactor":[0.03561436968491877,0.016067700890886875,0.05459227728176034,1],"metallicFactor":0,"roughnessFactor":0.2},"name":"Gentle Glow0","emissiveFactor":[0,0,0],"extensions":{},"alphaMode":"OPAQUE","doubleSided":false},{"pbrMetallicRoughness":{"baseColorFactor":[0.03561436968491877,0.016067700890886875,0.05459227728176034,1],"metallicFactor":0,"roughnessFactor":0.2},"name":"Gentle Glow1","emissiveFactor":[0,0,0],"extensions":{},"alphaMode":"OPAQUE","doubleSided":false},{"pbrMetallicRoughness":{"baseColorFactor":[0.03561436968491877,0.016067700890886875,0.05459227728176034,1],"metallicFactor":0,"roughnessFactor":0.2},"name":"Gentle Glow2","emissiveFactor":[0,0,0],"extensions":{},"alphaMode":"OPAQUE","doubleSided":false},{"pbrMetallicRoughness":{"baseColorFactor":[0.03561436968491877,0.016067700890886875,0.05459227728176034,1],"metallicFactor":0,"roughnessFactor":0.2},"name":"Gentle Glow3","emissiveFactor":[0,0,0],"extensions":{},"alphaMode":"OPAQUE","doubleSided":false},{"pbrMetallicRoughness":{"baseColorFactor":[0.03561436968491877,0.016067700890886875,0.05459227728176034,1],"metallicFactor":0,"roughnessFactor":0.2},"name":"Gentle Glow4","emissiveFactor":[0,0,0],"extensions":{},"alphaMode":"OPAQUE","doubleSided":false},{"pbrMetallicRoughness":{"baseColorFactor":[0.03561436968491877,0.016067700890886875,0.05459227728176034,1],"metallicFactor":0,"roughnessFactor":0.2},"name":"Gentle Glow5","emissiveFactor":[0,0,0],"extensions":{},"alphaMode":"OPAQUE","doubleSided":false},{"pbrMetallicRoughness":{"baseColorFactor":[0.03561436968491877,0.016067700890886875,0.05459227728176034,1],"metallicFactor":0,"roughnessFactor":0.2},"name":"Gentle Glow6","emissiveFactor":[0,0,0],"extensions":{},"alphaMode":"OPAQUE","doubleSided":false},{"pbrMetallicRoughness":{"baseColorFactor":[0.03561436968491877,0.016067700890886875,0.05459227728176034,1],"metallicFactor":0,"roughnessFactor":0.2},"name":"Gentle Glow7","emissiveFactor":[0,0,0],"extensions":{},"alphaMode":"OPAQUE","doubleSided":false},{"pbrMetallicRoughness":{"baseColorFactor":[0.03561436968491877,0.016067700890886875,0.05459227728176034,1],"metallicFactor":0,"roughnessFactor":0.2},"name":"Gentle Glow8","emissiveFactor":[0,0,0],"extensions":{},"alphaMode":"OPAQUE","doubleSided":false},{"pbrMetallicRoughness":{"baseColorFactor":[0.03561436968491877,0.016067700890886875,0.05459227728176034,1],"metallicFactor":0,"roughnessFactor":0.2},"name":"Gentle Glow9","emissiveFactor":[0,0,0],"extensions":{},"alphaMode":"OPAQUE","doubleSided":false},{"pbrMetallicRoughness":{"baseColorFactor":[0.03561436968491877,0.016067700890886875,0.05459227728176034,1],"metallicFactor":0,"roughnessFactor":0.2},"name":"Gentle Glow10","emissiveFactor":[0,0,0],"extensions":{},"alphaMode":"OPAQUE","doubleSided":false},{"pbrMetallicRoughness":{"baseColorFactor":[0.03561436968491877,0.016067700890886875,0.05459227728176034,1],"metallicFactor":0,"roughnessFactor":0.2},"name":"Gentle Glow11","emissiveFactor":[0,0,0],"extensions":{},"alphaMode":"OPAQUE","doubleSided":false},{"pbrMetallicRoughness":{"baseColorFactor":[1,1,1,1],"baseColorTexture":{"index":0,"extensions":{"KHR_texture_transform":{"offset":[0,0],"scale":[1,1],"rotation":0}},"texCoord":0},"metallicFactor":0,"roughnessFactor":0.2},"name":"Harvest Time","emissiveFactor":[0,0,0],"extensions":{},"alphaMode":"OPAQUE","doubleSided":true},{"pbrMetallicRoughness":{"baseColorFactor":[0.03561436968491877,0.016067700890886875,0.05459227728176034,1],"metallicFactor":0,"roughnessFactor":1},"name":"","emissiveFactor":[0,0,0],"extensions":{},"alphaMode":"OPAQUE","doubleSided":true}],"meshes":[{"primitives":[{"mode":4,"attributes":{"POSITION":1,"NORMAL":2,"TEXCOORD_0":3},"material":0,"indices":0}]},{"primitives":[{"mode":4,"attributes":{"POSITION":5,"NORMAL":6,"TEXCOORD_0":7},"material":1,"indices":4}]},{"primitives":[{"mode":4,"attributes":{"POSITION":9,"NORMAL":10,"TEXCOORD_0":11},"material":2,"indices":8}]},{"primitives":[{"mode":4,"attributes":{"POSITION":13,"NORMAL":14,"TEXCOORD_0":15},"material":3,"indices":12}]},{"primitives":[{"mode":4,"attributes":{"POSITION":17,"NORMAL":18,"TEXCOORD_0":19},"material":4,"indices":16}]},{"primitives":[{"mode":4,"attributes":{"POSITION":21,"NORMAL":22,"TEXCOORD_0":23},"material":5,"indices":20}]},{"primitives":[{"mode":4,"attributes":{"POSITION":25,"NORMAL":26,"TEXCOORD_0":27},"material":6,"indices":24}]},{"primitives":[{"mode":4,"attributes":{"POSITION":29,"NORMAL":30,"TEXCOORD_0":31},"material":7,"indices":28}]},{"primitives":[{"mode":4,"attributes":{"POSITION":33,"NORMAL":34,"TEXCOORD_0":35},"material":8,"indices":32}]},{"primitives":[{"mode":4,"attributes":{"POSITION":37,"NORMAL":38,"TEXCOORD_0":39},"material":9,"indices":36}]},{"primitives":[{"mode":4,"attributes":{"POSITION":41,"NORMAL":42,"TEXCOORD_0":43},"material":10,"indices":40}]},{"primitives":[{"mode":4,"attributes":{"POSITION":45,"NORMAL":46,"TEXCOORD_0":47},"material":11,"indices":44}]},{"primitives":[{"mode":4,"attributes":{"POSITION":49,"NORMAL":50,"TEXCOORD_0":51},"material":12,"indices":48}]},{"primitives":[{"mode":4,"attributes":{"POSITION":53,"NORMAL":54,"TEXCOORD_0":55},"material":13,"indices":52}]},{"primitives":[{"mode":4,"attributes":{"POSITION":57,"NORMAL":58,"TEXCOORD_0":59},"material":14,"indices":56}]}],"accessors":[{"bufferView":0,"byteOffset":0,"componentType":5125,"count":36,"type":"SCALAR"},{"bufferView":1,"byteOffset":0,"componentType":5126,"count":24,"max":[18.701000213623047,2.1766260702735327e-15,35.547000885009766],"min":[0.04899999871850014,-15,-3.052000045776367],"type":"VEC3"},{"bufferView":2,"byteOffset":0,"componentType":5126,"count":24,"type":"VEC3"},{"bufferView":3,"byteOffset":0,"componentType":5126,"count":24,"type":"VEC2"},{"bufferView":4,"byteOffset":0,"componentType":5125,"count":36,"type":"SCALAR"},{"bufferView":5,"byteOffset":0,"componentType":5126,"count":24,"max":[18.701000213623047,2.1766260702735327e-15,35.547000885009766],"min":[0.04899999871850014,-15,-3.052000045776367],"type":"VEC3"},{"bufferView":6,"byteOffset":0,"componentType":5126,"count":24,"type":"VEC3"},{"bufferView":7,"byteOffset":0,"componentType":5126,"count":24,"type":"VEC2"},{"bufferView":8,"byteOffset":0,"componentType":5125,"count":108,"type":"SCALAR"},{"bufferView":9,"byteOffset":0,"componentType":5126,"count":70,"max":[26.195999145507812,2.1766260702735327e-15,35.547000885009766],"min":[3.61299991607666,-15,0],"type":"VEC3"},{"bufferView":10,"byteOffset":0,"componentType":5126,"count":70,"type":"VEC3"},{"bufferView":11,"byteOffset":0,"componentType":5126,"count":70,"type":"VEC2"},{"bufferView":12,"byteOffset":0,"componentType":5125,"count":300,"type":"SCALAR"},{"bufferView":13,"byteOffset":0,"componentType":5126,"count":202,"max":[16.895000457763672,1.6473948026313624e-15,26.90399932861328],"min":[3.0269999504089355,-15,0],"type":"VEC3"},{"bufferView":14,"byteOffset":0,"componentType":5126,"count":202,"type":"VEC3"},{"bufferView":15,"byteOffset":0,"componentType":5126,"count":202,"type":"VEC2"},{"bufferView":16,"byteOffset":0,"componentType":5125,"count":1032,"type":"SCALAR"},{"bufferView":17,"byteOffset":0,"componentType":5126,"count":686,"max":[25.268999099731445,1.6473948026313624e-15,26.90399932861328],"min":[2.0260000228881836,-15,-0.4880000054836273],"type":"VEC3"},{"bufferView":18,"byteOffset":0,"componentType":5126,"count":686,"type":"VEC3"},{"bufferView":19,"byteOffset":0,"componentType":5126,"count":686,"type":"VEC2"},{"bufferView":20,"byteOffset":0,"componentType":5125,"count":336,"type":"SCALAR"},{"bufferView":21,"byteOffset":0,"componentType":5126,"count":226,"max":[23.975000381469727,1.6175134919554804e-15,26.416000366210938],"min":[0.2930000126361847,-15,-10.668999671936035],"type":"VEC3"},{"bufferView":22,"byteOffset":0,"componentType":5126,"count":226,"type":"VEC3"},{"bufferView":23,"byteOffset":0,"componentType":5126,"count":226,"type":"VEC2"},{"bufferView":24,"byteOffset":0,"componentType":5125,"count":1416,"type":"SCALAR"},{"bufferView":25,"byteOffset":0,"componentType":5126,"count":950,"max":[24.878000259399414,1.6473948026313624e-15,26.90399932861328],"min":[2.197000026702881,-15,-0.4880000054836273],"type":"VEC3"},{"bufferView":26,"byteOffset":0,"componentType":5126,"count":950,"type":"VEC3"},{"bufferView":27,"byteOffset":0,"componentType":5126,"count":950,"type":"VEC2"},{"bufferView":28,"byteOffset":0,"componentType":5125,"count":36,"type":"SCALAR"},{"bufferView":29,"byteOffset":0,"componentType":5126,"count":24,"max":[22.461000442504883,0,9.184850467946473e-16],"min":[0.0729999989271164,-15,-4.663000106811523],"type":"VEC3"},{"bufferView":30,"byteOffset":0,"componentType":5126,"count":24,"type":"VEC3"},{"bufferView":31,"byteOffset":0,"componentType":5126,"count":24,"type":"VEC2"},{"bufferView":32,"byteOffset":0,"componentType":5125,"count":168,"type":"SCALAR"},{"bufferView":33,"byteOffset":0,"componentType":5126,"count":116,"max":[40.0880012512207,2.1766260702735327e-15,35.547000885009766],"min":[3.61299991607666,-15,0],"type":"VEC3"},{"bufferView":34,"byteOffset":0,"componentType":5126,"count":116,"type":"VEC3"},{"bufferView":35,"byteOffset":0,"componentType":5126,"count":116,"type":"VEC2"},{"bufferView":36,"byteOffset":0,"componentType":5125,"count":1032,"type":"SCALAR"},{"bufferView":37,"byteOffset":0,"componentType":5126,"count":686,"max":[25.268999099731445,1.6473948026313624e-15,26.90399932861328],"min":[2.0260000228881836,-15,-0.4880000054836273],"type":"VEC3"},{"bufferView":38,"byteOffset":0,"componentType":5126,"count":686,"type":"VEC3"},{"bufferView":39,"byteOffset":0,"componentType":5126,"count":686,"type":"VEC2"},{"bufferView":40,"byteOffset":0,"componentType":5125,"count":432,"type":"SCALAR"},{"bufferView":41,"byteOffset":0,"componentType":5126,"count":278,"max":[15.282999992370605,2.0106863866757845e-15,32.83700180053711],"min":[0.19499999284744263,-15,-0.4880000054836273],"type":"VEC3"},{"bufferView":42,"byteOffset":0,"componentType":5126,"count":278,"type":"VEC3"},{"bufferView":43,"byteOffset":0,"componentType":5126,"count":278,"type":"VEC2"},{"bufferView":44,"byteOffset":0,"componentType":5125,"count":1416,"type":"SCALAR"},{"bufferView":45,"byteOffset":0,"componentType":5126,"count":950,"max":[24.878000259399414,1.6473948026313624e-15,26.90399932861328],"min":[2.197000026702881,-15,-0.4880000054836273],"type":"VEC3"},{"bufferView":46,"byteOffset":0,"componentType":5126,"count":950,"type":"VEC3"},{"bufferView":47,"byteOffset":0,"componentType":5126,"count":950,"type":"VEC2"},{"bufferView":48,"byteOffset":0,"componentType":5125,"count":696,"type":"SCALAR"},{"bufferView":49,"byteOffset":0,"componentType":5126,"count":462,"max":[30.12700080871582,2.1766260702735327e-15,35.547000885009766],"min":[3.61299991607666,-15,0],"type":"VEC3"},{"bufferView":50,"byteOffset":0,"componentType":5126,"count":462,"type":"VEC3"},{"bufferView":51,"byteOffset":0,"componentType":5126,"count":462,"type":"VEC2"},{"bufferView":52,"byteOffset":0,"componentType":5125,"count":2700,"type":"SCALAR"},{"bufferView":53,"byteOffset":0,"componentType":5126,"count":556,"max":[127,4,254],"min":[-127,-4,0],"type":"VEC3"},{"bufferView":54,"byteOffset":0,"componentType":5126,"count":556,"type":"VEC3"},{"bufferView":55,"byteOffset":0,"componentType":5126,"count":556,"type":"VEC2"},{"bufferView":56,"byteOffset":0,"componentType":5125,"count":192,"type":"SCALAR"},{"bufferView":57,"byteOffset":0,"componentType":5126,"count":108,"max":[261.739013671875,154.75399780273438,50.20000076293945],"min":[-272,-138.15200805664062,0.20000000298023224],"type":"VEC3"},{"bufferView":58,"byteOffset":0,"componentType":5126,"count":108,"type":"VEC3"},{"bufferView":59,"byteOffset":0,"componentType":5126,"count":108,"type":"VEC2"}],"bufferViews":[{"buffer":0,"byteOffset":0,"byteLength":144,"target":34963},{"buffer":0,"byteOffset":144,"byteLength":288,"target":34962},{"buffer":0,"byteOffset":432,"byteLength":288,"target":34962},{"buffer":0,"byteOffset":720,"byteLength":192,"target":34962},{"buffer":0,"byteOffset":912,"byteLength":144,"target":34963},{"buffer":0,"byteOffset":1056,"byteLength":288,"target":34962},{"buffer":0,"byteOffset":1344,"byteLength":288,"target":34962},{"buffer":0,"byteOffset":1632,"byteLength":192,"target":34962},{"buffer":0,"byteOffset":1824,"byteLength":432,"target":34963},{"buffer":0,"byteOffset":2256,"byteLength":840,"target":34962},{"buffer":0,"byteOffset":3096,"byteLength":840,"target":34962},{"buffer":0,"byteOffset":3936,"byteLength":560,"target":34962},{"buffer":0,"byteOffset":4496,"byteLength":1200,"target":34963},{"buffer":0,"byteOffset":5696,"byteLength":2424,"target":34962},{"buffer":0,"byteOffset":8120,"byteLength":2424,"target":34962},{"buffer":0,"byteOffset":10544,"byteLength":1616,"target":34962},{"buffer":0,"byteOffset":12160,"byteLength":4128,"target":34963},{"buffer":0,"byteOffset":16288,"byteLength":8232,"target":34962},{"buffer":0,"byteOffset":24520,"byteLength":8232,"target":34962},{"buffer":0,"byteOffset":32752,"byteLength":5488,"target":34962},{"buffer":0,"byteOffset":38240,"byteLength":1344,"target":34963},{"buffer":0,"byteOffset":39584,"byteLength":2712,"target":34962},{"buffer":0,"byteOffset":42296,"byteLength":2712,"target":34962},{"buffer":0,"byteOffset":45008,"byteLength":1808,"target":34962},{"buffer":0,"byteOffset":46816,"byteLength":5664,"target":34963},{"buffer":0,"byteOffset":52480,"byteLength":11400,"target":34962},{"buffer":0,"byteOffset":63880,"byteLength":11400,"target":34962},{"buffer":0,"byteOffset":75280,"byteLength":7600,"target":34962},{"buffer":0,"byteOffset":82880,"byteLength":144,"target":34963},{"buffer":0,"byteOffset":83024,"byteLength":288,"target":34962},{"buffer":0,"byteOffset":83312,"byteLength":288,"target":34962},{"buffer":0,"byteOffset":83600,"byteLength":192,"target":34962},{"buffer":0,"byteOffset":83792,"byteLength":672,"target":34963},{"buffer":0,"byteOffset":84464,"byteLength":1392,"target":34962},{"buffer":0,"byteOffset":85856,"byteLength":1392,"target":34962},{"buffer":0,"byteOffset":87248,"byteLength":928,"target":34962},{"buffer":0,"byteOffset":88176,"byteLength":4128,"target":34963},{"buffer":0,"byteOffset":92304,"byteLength":8232,"target":34962},{"buffer":0,"byteOffset":100536,"byteLength":8232,"target":34962},{"buffer":0,"byteOffset":108768,"byteLength":5488,"target":34962},{"buffer":0,"byteOffset":114256,"byteLength":1728,"target":34963},{"buffer":0,"byteOffset":115984,"byteLength":3336,"target":34962},{"buffer":0,"byteOffset":119320,"byteLength":3336,"target":34962},{"buffer":0,"byteOffset":122656,"byteLength":2224,"target":34962},{"buffer":0,"byteOffset":124880,"byteLength":5664,"target":34963},{"buffer":0,"byteOffset":130544,"byteLength":11400,"target":34962},{"buffer":0,"byteOffset":141944,"byteLength":11400,"target":34962},{"buffer":0,"byteOffset":153344,"byteLength":7600,"target":34962},{"buffer":0,"byteOffset":160944,"byteLength":2784,"target":34963},{"buffer":0,"byteOffset":163728,"byteLength":5544,"target":34962},{"buffer":0,"byteOffset":169272,"byteLength":5544,"target":34962},{"buffer":0,"byteOffset":174816,"byteLength":3696,"target":34962},{"buffer":0,"byteOffset":178512,"byteLength":10800,"target":34963},{"buffer":0,"byteOffset":189312,"byteLength":6672,"target":34962},{"buffer":0,"byteOffset":195984,"byteLength":6672,"target":34962},{"buffer":0,"byteOffset":202656,"byteLength":4448,"target":34962},{"buffer":0,"byteOffset":207104,"byteLength":768,"target":34963},{"buffer":0,"byteOffset":207872,"byteLength":1296,"target":34962},{"buffer":0,"byteOffset":209168,"byteLength":1296,"target":34962},{"buffer":0,"byteOffset":210464,"byteLength":864,"target":34962}],"textures":[{"sampler":0,"source":0}],"images":[{"uri":"FreyaX22x.jpg","mimeType":"image/jpeg"}],"samplers":[{"wrapS":10497,"wrapT":10497}],"scene":0,"scenes":[{"nodes":[0,1,2,3,4,5,6,7,8,9,10,11,12,13,14],"name":"Freya3d"}],"extensionsUsed":["KHR_texture_transform"],"buffers":[{"byteLength":211328,"uri":"Freya3d.bin"}]}