{"asset":{"version":"2.0","generator":"VECTARY"},"nodes":[{"translation":[0.243210015659679,-0.26198727728572846,0.05295007067693423],"scale":[0.001,0.001,0.001],"rotation":[-0.7071067811865475,0,0,0.7071067811865476],"name":"Point Light 1","extensions":{"KHR_lights_punctual":{"light":0}}},{"translation":[-0.20776841582031688,0.214416136456647,0.6145104538905201],"scale":[0.001,0.001,0.001],"rotation":[0,0,0,1],"name":"Point Light","extensions":{"KHR_lights_punctual":{"light":1}}},{"translation":[-0.0022112952931966916,0.00044021825593311095,0.11812562751977691],"scale":[0.001,0.0010000000000000002,0.0010000000000000002],"rotation":[0,0,0,1],"name":"Freya","mesh":0},{"translation":[-0.0023791214525782606,0,0],"scale":[0.00514,0.0051400000000000005,0.00020000000000000006],"rotation":[0,0,0,1],"name":"Background","mesh":1}],"extensions":{"KHR_lights_punctual":{"lights":[{"name":"Point Light 1","type":"point","intensity":0.4,"range":10000,"color":[1,1,1]},{"name":"Point Light","type":"point","intensity":0.4,"range":10000,"color":[1,1,1]}]}},"materials":[{"pbrMetallicRoughness":{"baseColorFactor":[1,1,1,1],"baseColorTexture":{"index":0,"extensions":{"KHR_texture_transform":{"offset":[0,0],"scale":[1,1],"rotation":0}},"texCoord":0},"metallicFactor":0,"roughnessFactor":0.2},"name":"Fiesta","emissiveTexture":{"index":1,"extensions":{"KHR_texture_transform":{"offset":[0,0],"scale":[1,1],"rotation":0}},"texCoord":0},"emissiveFactor":[0,0,0],"extensions":{},"alphaMode":"BLEND","doubleSided":false},{"pbrMetallicRoughness":{"baseColorFactor":[0.8751375823652049,0.6054842999109071,0.8122414898984895,1],"metallicFactor":0,"roughnessFactor":0.2},"name":"Fresh Air","emissiveFactor":[0,0,0],"extensions":{},"alphaMode":"OPAQUE","doubleSided":false}],"textures":[{"sampler":0,"source":0},{"sampler":0,"source":1}],"images":[{"uri":"Freya&Freya.png","mimeType":"image/png"},{"uri":"Freya.png","mimeType":"image/png"}],"samplers":[{"wrapS":10497,"wrapT":10497}],"meshes":[{"primitives":[{"mode":4,"attributes":{"POSITION":1,"NORMAL":2,"TEXCOORD_0":3},"material":0,"indices":0}]},{"primitives":[{"mode":4,"attributes":{"POSITION":5,"NORMAL":6,"TEXCOORD_0":7},"material":1,"indices":4}]}],"accessors":[{"bufferView":0,"byteOffset":0,"componentType":5125,"count":6,"type":"SCALAR"},{"bufferView":1,"byteOffset":0,"componentType":5126,"count":4,"max":[262.04998779296875,262.04998779296875,0],"min":[-262.04998779296875,-262.04998779296875,0],"type":"VEC3"},{"bufferView":2,"byteOffset":0,"componentType":5126,"count":4,"type":"VEC3"},{"bufferView":3,"byteOffset":0,"componentType":5126,"count":4,"type":"VEC2"},{"bufferView":4,"byteOffset":0,"componentType":5125,"count":36,"type":"SCALAR"},{"bufferView":5,"byteOffset":0,"componentType":5126,"count":24,"max":[50,50,100],"min":[-50,-50,0],"type":"VEC3"},{"bufferView":6,"byteOffset":0,"componentType":5126,"count":24,"type":"VEC3"},{"bufferView":7,"byteOffset":0,"componentType":5126,"count":24,"type":"VEC2"}],"bufferViews":[{"buffer":0,"byteOffset":0,"byteLength":24,"target":34963},{"buffer":0,"byteOffset":24,"byteLength":48,"target":34962},{"buffer":0,"byteOffset":72,"byteLength":48,"target":34962},{"buffer":0,"byteOffset":120,"byteLength":32,"target":34962},{"buffer":0,"byteOffset":152,"byteLength":144,"target":34963},{"buffer":0,"byteOffset":296,"byteLength":288,"target":34962},{"buffer":0,"byteOffset":584,"byteLength":288,"target":34962},{"buffer":0,"byteOffset":872,"byteLength":192,"target":34962}],"scene":0,"scenes":[{"nodes":[0,1,2,3],"name":"FreyaBGLess"}],"extensionsUsed":["KHR_texture_transform","KHR_lights_punctual"],"extensionsRequired":["KHR_lights_punctual"],"buffers":[{"byteLength":1064,"uri":"FreyaBGLess.bin"}]}