{"asset":{"version":"2.0","generator":"VECTARY"},"nodes":[{"translation":[0,-0.12880393897038214,-0.012309705822862711],"scale":[0.001293820031099539,0.001293820031099539,0.001293820031099539],"rotation":[-0.7071067811865475,0,0,0.7071067811865476],"name":"Background","mesh":0},{"translation":[0,-0.008000000000000007,0.04656464519135966],"scale":[0.001,0.0010000000000000002,0.0010000000000000002],"rotation":[0,0,0,1],"name":"Freya","mesh":1},{"translation":[0,-7.105427357601002e-18,0.10758067767101628],"scale":[0.001,0.0010000000000000002,0.0010000000000000002],"rotation":[0,0,0,1],"name":"Windows","mesh":2}],"materials":[{"pbrMetallicRoughness":{"baseColorFactor":[0.33922333493532675,0.9489649381781952,0.9913928435929399,1],"metallicFactor":0,"roughnessFactor":0.2},"name":"9cf9fe\n\n","emissiveFactor":[0,0,0],"extensions":{},"alphaMode":"OPAQUE","doubleSided":false},{"pbrMetallicRoughness":{"baseColorFactor":[1,1,1,1],"baseColorTexture":{"index":0,"extensions":{"KHR_texture_transform":{"offset":[0,0],"scale":[1,1],"rotation":0}},"texCoord":0},"metallicFactor":0,"roughnessFactor":0.2},"name":"Alpine","emissiveTexture":{"index":1,"extensions":{"KHR_texture_transform":{"offset":[0,0],"scale":[1,1],"rotation":0}},"texCoord":0},"emissiveFactor":[0,0,0],"extensions":{},"alphaMode":"BLEND","doubleSided":false},{"pbrMetallicRoughness":{"baseColorFactor":[1,1,1,1],"baseColorTexture":{"index":2,"extensions":{"KHR_texture_transform":{"offset":[0,0],"scale":[1,1],"rotation":0}},"texCoord":0},"metallicFactor":0,"roughnessFactor":0.2},"name":"Dallas","emissiveTexture":{"index":3,"extensions":{"KHR_texture_transform":{"offset":[0,0],"scale":[1,1],"rotation":0}},"texCoord":0},"emissiveFactor":[0,0,0],"extensions":{},"alphaMode":"BLEND","doubleSided":false}],"meshes":[{"primitives":[{"mode":4,"attributes":{"POSITION":1,"NORMAL":2,"TEXCOORD_0":3},"material":0,"indices":0}]},{"primitives":[{"mode":4,"attributes":{"POSITION":5,"NORMAL":6,"TEXCOORD_0":7},"material":1,"indices":4}]},{"primitives":[{"mode":4,"attributes":{"POSITION":9,"NORMAL":10,"TEXCOORD_0":11},"material":2,"indices":8}]}],"accessors":[{"bufferView":0,"byteOffset":0,"componentType":5125,"count":2700,"type":"SCALAR"},{"bufferView":1,"byteOffset":0,"componentType":5126,"count":556,"max":[99,1.9800000190734863,198],"min":[-99,-1.9800000190734863,1.4210854715202004e-14],"type":"VEC3"},{"bufferView":2,"byteOffset":0,"componentType":5126,"count":556,"type":"VEC3"},{"bufferView":3,"byteOffset":0,"componentType":5126,"count":556,"type":"VEC2"},{"bufferView":4,"byteOffset":0,"componentType":5125,"count":6,"type":"SCALAR"},{"bufferView":5,"byteOffset":0,"componentType":5126,"count":4,"max":[128,120.3125,0],"min":[-128,-120.3125,0],"type":"VEC3"},{"bufferView":6,"byteOffset":0,"componentType":5126,"count":4,"type":"VEC3"},{"bufferView":7,"byteOffset":0,"componentType":5126,"count":4,"type":"VEC2"},{"bufferView":8,"byteOffset":0,"componentType":5125,"count":6,"type":"SCALAR"},{"bufferView":9,"byteOffset":0,"componentType":5126,"count":4,"max":[128,128,0],"min":[-128,-128,0],"type":"VEC3"},{"bufferView":10,"byteOffset":0,"componentType":5126,"count":4,"type":"VEC3"},{"bufferView":11,"byteOffset":0,"componentType":5126,"count":4,"type":"VEC2"}],"bufferViews":[{"buffer":0,"byteOffset":0,"byteLength":10800,"target":34963},{"buffer":0,"byteOffset":10800,"byteLength":6672,"target":34962},{"buffer":0,"byteOffset":17472,"byteLength":6672,"target":34962},{"buffer":0,"byteOffset":24144,"byteLength":4448,"target":34962},{"buffer":0,"byteOffset":28592,"byteLength":24,"target":34963},{"buffer":0,"byteOffset":28616,"byteLength":48,"target":34962},{"buffer":0,"byteOffset":28664,"byteLength":48,"target":34962},{"buffer":0,"byteOffset":28712,"byteLength":32,"target":34962},{"buffer":0,"byteOffset":28744,"byteLength":24,"target":34963},{"buffer":0,"byteOffset":28768,"byteLength":48,"target":34962},{"buffer":0,"byteOffset":28816,"byteLength":48,"target":34962},{"buffer":0,"byteOffset":28864,"byteLength":32,"target":34962}],"textures":[{"sampler":0,"source":0},{"sampler":0,"source":1},{"sampler":0,"source":2},{"sampler":0,"source":3}],"images":[{"uri":"Freya&Freya.png","mimeType":"image/png"},{"uri":"Freya.png","mimeType":"image/png"},{"uri":"Freya_Windows_2x-removebg-preview&Freya_Windows_2x-removebg-preview.png","mimeType":"image/png"},{"uri":"Freya_Windows_2x-removebg-preview.png","mimeType":"image/png"}],"samplers":[{"wrapS":10497,"wrapT":10497}],"scene":0,"scenes":[{"nodes":[0,1,2],"name":"FreyaSegmented"}],"extensionsUsed":["KHR_texture_transform"],"buffers":[{"byteLength":28896,"uri":"FreyaSegmented.bin"}]}